:FULLY-SPECIFIED
:DEGREES
47
root -0.567874014377594 -0.567874014377594 -0.567874014377594 -0.5678755879732001 -0.5678755879732001 -0.5678755879732001
lhipjoint -9.671654586443837e-08 -1.5341245206083327e-07 1.0672170578144923e-06
lfemur -29.767074308655697 4.691957042318416 -17.80108148660277
ltibia 33.48080183964795 -2.4207976209294857e-06 2.573802554880092e-07
lfoot -14.360648607322936 1.362102617661819e-06 4.689143004380371
ltoes -55.86096850432691 4.132607670927833e-07 2.3104583268089025e-06
rhipjoint 1.1005675908711953e-07 6.870210827458292e-07 -1.494104084495789e-06
rfemur -21.566107153356405 2.9729207313010324 9.062595519096398
rtibia 20.106073963543434 1.1872504790486767e-06 -2.2345298863425094e-06
rfoot -19.688450584479465 3.494920451734996e-07 -14.233502928375858
rtoes -9.197737642014271 9.813787214049078e-07 -9.55473027191075e-07
lowerback 34.517286461291974 0.7861137923334476 -2.1354313232478064
upperback 3.1531423161844003 0.7791880872367604 2.9091011512437257
thorax -14.192188821633742 0.5481910895069292 3.97140068629922
lowerneck -11.457395592112624 -2.029057957114028 -1.9248847656666397
upperneck 23.5797988923852 -3.0151462414105206 2.3060364286666197
head 9.370881229926802 -1.331763944747426 0.7745436119620046
lclavicle -1.4085775951116125e-07 5.4855408257763046e-08 -1.0938974842598547e-06
lhumerus 66.2048187192585 -16.36511788342492 76.17761207733996
lradius 38.471583500135836 -2.3419414417121496e-06 2.5240963374294316e-06
lwrist -6.255063563182051e-07 -35.64021737216626 1.5082569421618026e-07
lhand -4.562975323145072 2.6246558075710764e-07 -26.656099019086014
lfingers 7.125022823272814 9.845282338726802e-08 3.18924141240953e-07
lthumb 21.213298854421275 -1.2803152392500461e-07 2.20318914769186
rclavicle 1.398304276268298e-07 4.3880174074018323e-07 -1.3740421654916584e-06
rhumerus 65.10761030079847 10.573034651210419 -59.7781571254101
rradius 47.32088928692566 -3.049201131784817e-06 -4.400201018275708e-06
rwrist 2.468661559330893e-07 29.4063310374523 5.518497478941255e-07
rhand -6.972260092956778 2.0321462048512455e-07 -36.68780446630613
rfingers 7.125022396385991 5.1024341088409163e-08 -3.1892353057445414e-07
rthumb 18.897492480477187 1.5447771905696147e-06 -65.78980959509936
48
root -0.567874014377594 -0.567874014377594 -0.567874014377594 -0.5678755879732001 -0.5678755879732001 -0.5678755879732001
lhipjoint -9.671654586443837e-08 -1.5341245206083327e-07 1.0672170578144923e-06
lfemur -26.83910881525463 2.74107956487847 -17.111932474821405
ltibia 29.83797167224043 -1.7331730979050516e-06 1.3255764152556434e-06
lfoot -14.188696033646927 1.297448505652528e-07 6.3406835994631
ltoes -55.1807602101691 -9.072784128805454e-07 2.956915989146968e-06
rhipjoint 1.1005675908711953e-07 6.870210827458292e-07 -1.494104084495789e-06
rfemur -17.512557220588505 3.163470202539694 9.22079721442588
rtibia 13.957697328369804 3.0303541316310877e-07 1.729899874582389e-07
rfoot -17.857432254802664 -8.96330383889324e-07 -15.602025243688999
rtoes -8.255690630929433 -6.513973436471908e-07 -8.164301685144694e-07
lowerback 33.767263388532875 0.6063158926220319 -2.043578939289475
upperback 2.4907642308549036 0.5907568284144487 2.921396132079983
thorax -14.529608704368835 0.4588930362156238 3.9916859212473352
lowerneck -11.457395592112624 -2.029057957114028 -1.9248847656666397
upperneck 23.5797988923852 -3.0151462414105206 2.3060364286666197
head 9.370881229926802 -1.331763944747426 0.7745436119620046
lclavicle -1.4085775951116125e-07 5.4855408257763046e-08 -1.0938974842598547e-06
lhumerus 71.8856236557415 -10.35057624371675 79.79880762055147
lradius 32.910091723169195 -3.0776866884007535e-06 1.0993145032155735e-06
lwrist -7.646886505120463e-07 -40.42057797979898 1.8438554593757964e-07
lhand -4.562975323145072 2.6246558075710764e-07 -26.656099019086014
lfingers 7.125022823272814 9.845282338726802e-08 3.18924141240953e-07
lthumb 21.213298854421275 -1.2803152392500461e-07 2.20318914769186
rclavicle 1.398304276268298e-07 4.3880174074018323e-07 -1.3740421654916584e-06
rhumerus 69.96995366903886 7.652200729076493 -59.60926703780319
rradius 42.34699868425522 -3.060761862829876e-06 -3.2453673632070066e-06
rwrist 2.599038093500322e-07 30.549817402633742 5.809886667749468e-07
rhand -6.972260092956778 2.0321462048512455e-07 -36.68780446630613
rfingers 7.125022396385991 5.1024341088409163e-08 -3.1892353057445414e-07
rthumb 18.897492480477187 1.5447771905696147e-06 -65.78980959509936
49
root -0.567874014377594 -0.567874014377594 -0.567874014377594 -0.5678755879732001 -0.5678755879732001 -0.5678755879732001
lhipjoint -9.671654586443837e-08 -1.5341245206083327e-07 1.0672170578144923e-06
lfemur -24.178111510847266 0.9315566942933453 -16.493405911510685
ltibia 26.879866261579387 -1.173045969174636e-06 5.026619863009807e-07
lfoot -14.183352264395038 1.2442309558335317e-06 7.861096942199455
ltoes -54.39580754999455 -9.652720871647271e-07 1.8454571612689438e-06
rhipjoint 1.1005675908711953e-07 6.870210827458292e-07 -1.494104084495789e-06
rfemur -13.933888996470431 3.2467980835270267 9.423938993173106
rtibia 8.932413821063248 6.133904785368252e-07 -2.4423225972361325e-06
rfoot -16.251082752589678 1.6381541031296415e-06 -16.55043116089112
rtoes -7.564270581249041 2.6053353373252454e-07 -8.208843699570155e-07
lowerback 32.394624176697505 0.5046553036547092 -2.057102927289512
upperback 2.0321859703104823 0.44176308185979046 2.858284757262242
thorax -14.410988809053224 0.39728494334552034 4.000906676626852
lowerneck -11.457395592112624 -2.029057957114028 -1.9248847656666397
upperneck 23.5797988923852 -3.0151462414105206 2.3060364286666197
head 9.370881229926802 -1.331763944747426 0.7745436119620046
lclavicle -1.4085775951116125e-07 5.4855408257763046e-08 -1.0938974842598547e-06
lhumerus 75.33115356368945 -3.929476985173682 82.75013236091398
lradius 28.28519646632973 8.802399323113626e-07 2.439072019462802e-06
lwrist -9.655736546374048e-07 -45.98170434164501 2.3282332001461668e-07
lhand -4.562975323145072 2.6246558075710764e-07 -26.656099019086014
lfingers 7.125022823272814 9.845282338726802e-08 3.18924141240953e-07
lthumb 21.213298854421275 -1.2803152392500461e-07 2.20318914769186
rclavicle 1.398304276268298e-07 4.3880174074018323e-07 -1.3740421654916584e-06
rhumerus 72.50665860602491 3.7868651966247544 -59.4142719671885
rradius 38.10951858732805 1.5151816458142851e-07 -3.0538729340564505e-06
rwrist 2.8577960634985913e-07 32.704714765016085 6.388370533212794e-07
rhand -6.972260092956778 2.0321462048512455e-07 -36.68780446630613
rfingers 7.125022396385991 5.1024341088409163e-08 -3.1892353057445414e-07
rthumb 18.897492480477187 1.5447771905696147e-06 -65.78980959509936
50
root -0.567874014377594 -0.567874014377594 -0.567874014377594 -0.5678755879732001 -0.5678755879732001 -0.5678755879732001
lhipjoint -9.671654586443837e-08 -1.5341245206083327e-07 1.0672170578144923e-06
lfemur -21.902884998309517 -0.5726161127831593 -15.968983987037104
ltibia 24.575563633744895 -1.240382332002336e-06 -4.507868850019362e-07
lfoot -14.220663880283526 -8.166631377837772e-07 9.161130389383942
ltoes -53.67002823369442 -1.001221209729498e-06 1.8126509356182079e-06
rhipjoint 1.1005675908711953e-07 6.870210827458292e-07 -1.494104084495789e-06
rfemur -11.0286014386611 3.423330725928353 9.626891234170866
rtibia 5.137013022410093 2.0883796838413929e-07 -7.963227527071319e-07
rfoot -15.018773192346808 -1.8984970071367777e-07 -17.25405505107103
rtoes -6.972543118920511 -1.3986811338313954e-06 -6.828036163493337e-07
lowerback 30.773280701709048 0.4654501245405418 -2.0907070311191513
upperback 1.8275123081984685 0.347957183757556 2.7187437790754703
thorax -13.96185947489528 0.3626694645906164 3.9377684079392545
lowerneck -11.457395592112624 -2.029057957114028 -1.9248847656666397
upperneck 23.5797988923852 -3.0151462414105206 2.3060364286666197
head 9.370881229926802 -1.331763944747426 0.7745436119620046
lclavicle -1.4085775951116125e-07 5.4855408257763046e-08 -1.0938974842598547e-06
lhumerus 76.71893872000932 2.40726410103444 84.38851032769244
lradius 24.96327419933879 3.886037332024557e-08 1.2684532460655593e-06
lwrist -1.1902355186727614e-06 -50.841185860623156 2.8699765701510984e-07
lhand -4.562975323145072 2.6246558075710764e-07 -26.656099019086014
lfingers 7.125022823272814 9.845282338726802e-08 3.18924141240953e-07
lthumb 21.213298854421275 -1.2803152392500461e-07 2.20318914769186
rclavicle 1.398304276268298e-07 4.3880174074018323e-07 -1.3740421654916584e-06
rhumerus 72.8409827055187 -0.7903065146276305 -58.75748780678924
rradius 34.88685433690302 5.931021018903312e-07 -3.628009566492277e-06
rwrist 3.175775198332588e-07 35.15694392234742 7.099219924521149e-07
rhand -6.972260092956778 2.0321462048512455e-07 -36.68780446630613
rfingers 7.125022396385991 5.1024341088409163e-08 -3.1892353057445414e-07
rthumb 18.897492480477187 1.5447771905696147e-06 -65.78980959509936
